<?xml version="1.0" standalone="no"?>
<!DOCTYPE svg PUBLIC "-//W3C//DTD SVG 20010904//EN"
 "http://www.w3.org/TR/2001/REC-SVG-20010904/DTD/svg10.dtd">
<svg version="1.0" xmlns="http://www.w3.org/2000/svg"
 width="215.000000pt" height="215.000000pt" viewBox="0 0 215.000000 215.000000"
 preserveAspectRatio="xMidYMid meet">
<metadata>
Created by potrace 1.11, written by Peter Selinger 2001-2013
</metadata>
<g transform="translate(0.000000,215.000000) scale(0.100000,-0.100000)"
fill="#000000" stroke="none">
<path d="M862 2129 c-377 -78 -685 -352 -806 -715 -54 -163 -68 -399 -32 -560
69 -316 282 -595 561 -736 82 -41 204 -85 256 -93 24 -4 62 -10 84 -15 40 -9
302 -7 340 3 11 3 40 10 65 16 231 54 460 203 603 394 145 194 217 407 217
644 0 240 -54 419 -186 619 -51 78 -193 220 -273 274 -112 75 -271 145 -371
164 -14 3 -47 9 -73 14 -84 17 -283 12 -385 -9z"/>
</g>
</svg>
